HIERARCHY
ROOT hip
{
  OFFSET 0 0 0
  CHANNELS 6 Xposition Yposition Zposition Zrotation Yrotation Xrotation
  JOINT abdomen
  {
    OFFSET 0 20.6881 -0.73152
    CHANNELS 3 Zrotation Xrotation Yrotation
    JOINT chest
    {
      OFFSET 0 11.7043 -0.48768
      CHANNELS 3 Zrotation Xrotation Yrotation
      JOINT neck
      {
        OFFSET 0 22.1894 -2.19456
        CHANNELS 3 Zrotation Xrotation Yrotation
        JOINT head
        {
          OFFSET -0.24384 7.07133 1.2192
          CHANNELS 3 Zrotation Xrotation Yrotation
          JOINT leftEye
          {
            OFFSET 4.14528 8.04674 8.04672
            CHANNELS 3 Zrotation Xrotation Yrotation
            End Site
            {
              OFFSET 1 0 0
            }
          }
          JOINT rightEye
          {
            OFFSET -3.6576 8.04674 8.04672
            CHANNELS 3 Zrotation Xrotation Yrotation
            End Site
            {
              OFFSET 1 0 0
            }
          }
        }
      }
      JOINT rCollar
      {
        OFFSET -2.68224 19.2634 -4.8768
        CHANNELS 3 Zrotation Xrotation Yrotation
        JOINT rShldr
        {
          OFFSET -8.77824 -1.95073 1.46304
          CHANNELS 3 Zrotation Xrotation Yrotation
          JOINT rForeArm
          {
            OFFSET -28.1742 -1.7115 0.48768
            CHANNELS 3 Zrotation Xrotation Yrotation
            JOINT rHand
            {
              OFFSET -22.5879 0.773209 7.07136
              CHANNELS 3 Zrotation Xrotation Yrotation
              JOINT rThumb1
              {
                OFFSET -1.2192 -0.487915 3.41376
                CHANNELS 3 Zrotation Xrotation Yrotation
                JOINT rThumb2
                {
                  OFFSET -3.37035 -0.52449 3.41376
                  CHANNELS 3 Zrotation Xrotation Yrotation
                  End Site
                  {
                    OFFSET -1.78271 -1.18214 1.43049
                  }
                }
              }
              JOINT rIndex1
              {
                OFFSET -7.75947 0.938293 5.60832
                CHANNELS 3 Zrotation Xrotation Yrotation
                JOINT rIndex2
                {
                  OFFSET -2.54057 -0.884171 1.56538
                  CHANNELS 3 Zrotation Xrotation Yrotation
                  End Site
                  {
                    OFFSET -1.62519 -0.234802 1.16502
                  }
                }
              }
              JOINT rMid1
              {
                OFFSET -8.24714 1.18213 3.41376
                CHANNELS 3 Zrotation Xrotation Yrotation
                JOINT rMid2
                {
                  OFFSET -3.10165 -0.590103 1.0647
                  CHANNELS 3 Zrotation Xrotation Yrotation
                  End Site
                  {
                    OFFSET -2.48547 -0.328903 0.83742
                  }
                }
              }
              JOINT rRing1
              {
                OFFSET -8.82822 0.546677 1.51678
                CHANNELS 3 Zrotation Xrotation Yrotation
                JOINT rRing2
                {
                  OFFSET -2.60934 -0.819778 -0.0198488
                  CHANNELS 3 Zrotation Xrotation Yrotation
                  End Site
                  {
                    OFFSET -2.33842 -0.294052 0.168128
                  }
                }
              }
              JOINT rPinky1
              {
                OFFSET -8.27202 -0.0477905 -0.4584
                CHANNELS 3 Zrotation Xrotation Yrotation
                JOINT rPinky2
                {
                  OFFSET -1.82734 -0.647385 -0.700984
                  CHANNELS 3 Zrotation Xrotation Yrotation
                  End Site
                  {
                    OFFSET -1.69225 -0.51767 -0.607171
                  }
                }
              }
            }
          }
        }
      }
      JOINT lCollar
      {
        OFFSET 2.68224 19.2634 -4.8768
        CHANNELS 3 Zrotation Xrotation Yrotation
        JOINT lShldr
        {
          OFFSET 8.77824 -1.95073 1.46304
          CHANNELS 3 Zrotation Xrotation Yrotation
          JOINT lForeArm
          {
            OFFSET 28.1742 -1.7115 0.48768
            CHANNELS 3 Zrotation Xrotation Yrotation
            JOINT lHand
            {
              OFFSET 22.5879 0.773209 7.07136
              CHANNELS 3 Zrotation Xrotation Yrotation
              JOINT lThumb1
              {
                OFFSET 1.2192 -0.487915 3.41376
                CHANNELS 3 Zrotation Xrotation Yrotation
                JOINT lThumb2
                {
                  OFFSET 3.37035 -0.52449 3.41376
                  CHANNELS 3 Zrotation Xrotation Yrotation
                  End Site
                  {
                    OFFSET 1.78271 -1.18214 1.43049
                  }
                }
              }
              JOINT lIndex1
              {
                OFFSET 7.75947 0.938293 5.60832
                CHANNELS 3 Zrotation Xrotation Yrotation
                JOINT lIndex2
                {
                  OFFSET 2.54057 -0.884171 1.56538
                  CHANNELS 3 Zrotation Xrotation Yrotation
                  End Site
                  {
                    OFFSET 1.62519 -0.234802 1.16502
                  }
                }
              }
              JOINT lMid1
              {
                OFFSET 8.24714 1.18213 3.41376
                CHANNELS 3 Zrotation Xrotation Yrotation
                JOINT lMid2
                {
                  OFFSET 3.10165 -0.590103 1.0647
                  CHANNELS 3 Zrotation Xrotation Yrotation
                  End Site
                  {
                    OFFSET 2.48547 -0.328903 0.83742
                  }
                }
              }
              JOINT lRing1
              {
                OFFSET 8.82822 0.546677 1.51678
                CHANNELS 3 Zrotation Xrotation Yrotation
                JOINT lRing2
                {
                  OFFSET 2.60934 -0.819778 -0.0198488
                  CHANNELS 3 Zrotation Xrotation Yrotation
                  End Site
                  {
                    OFFSET 2.33842 -0.294052 0.168128
                  }
                }
              }
              JOINT lPinky1
              {
                OFFSET 8.27202 -0.0477905 -0.4584
                CHANNELS 3 Zrotation Xrotation Yrotation
                JOINT lPinky2
                {
                  OFFSET 1.82734 -0.647385 -0.700984
                  CHANNELS 3 Zrotation Xrotation Yrotation
                  End Site
                  {
                    OFFSET 1.69225 -0.51767 -0.607171
                  }
                }
              }
            }
          }
        }
      }
    }
  }
  JOINT rButtock
  {
    OFFSET -8.77824 4.35084 1.2192
    CHANNELS 3 Zrotation Xrotation Yrotation
    JOINT rThigh
    {
      OFFSET 0 -1.70687 -2.19456
      CHANNELS 3 Zrotation Xrotation Yrotation
      JOINT rShin
      {
        OFFSET 0 -36.8199 0.73152
        CHANNELS 3 Zrotation Xrotation Yrotation
        JOINT rFoot
        {
          OFFSET 0.73152 -45.1104 -5.12064
          CHANNELS 3 Zrotation Xrotation Yrotation
          End Site
          {
            OFFSET -1.1221 -3.69964 12.103
          }
        }
      }
    }
  }
  JOINT lButtock
  {
    OFFSET 8.77824 4.35084 1.2192
    CHANNELS 3 Zrotation Xrotation Yrotation
    JOINT lThigh
    {
      OFFSET 0 -1.70687 -2.19456
      CHANNELS 3 Zrotation Xrotation Yrotation
      JOINT lShin
      {
        OFFSET 0 -36.8199 0.73152
        CHANNELS 3 Zrotation Xrotation Yrotation
        JOINT lFoot
        {
          OFFSET -0.73152 -45.1104 -5.12064
          CHANNELS 3 Zrotation Xrotation Yrotation
          End Site
          {
            OFFSET 1.1221 -3.69964 12.103
          }
        }
      }
    }
  }
}
MOTION
Frames:	6
Frame Time:	0.03333
0.012399999832268804 56.33789896965027 0.03800000122282654 -10.447980880737305 -56.87358474731445 5.532199382781982 -0.6881967782974243 16.314584732055664 14.787700653076172 -3.422708034515381 -13.30019760131836 3.6748242378234863 -1.6562448740005493 14.218994140625 8.731511116027832 10.307676315307617 -22.770999908447266 19.346088409423828 -0.0 0.0 -0.0 -0.0 0.0 -0.0 -0.0 0.0 -0.0 12.510491371154785 81.66209411621094 53.160011291503906 -26.529809951782227 -45.16859817504883 93.8073959350586 -31.011470794677734 -77.2266845703125 -38.3111457824707 -0.0 0.0 -0.0 -0.0 0.0 -0.0 -0.0 0.0 -0.0 7.730876445770264 5.474894046783447 0.41732466220855713 -0.0 0.0 -0.0 2.9054994583129883 0.9650753736495972 0.10300876200199127 -0.0 0.0 -0.0 10.278595924377441 0.7317469120025635 0.026285571977496147 -0.0 0.0 -0.0 2.221662998199463 -0.7335850596427917 -0.20831838250160217 -0.0 0.0 -0.0 -62.624000549316406 4.637038230895996 -34.697391510009766 28.171106338500977 -31.754796981811523 -70.05899810791016 0.8214183449745178 24.6241397857666 -3.696701765060425 -0.0 0.0 -0.0 -0.0 0.0 -0.0 -0.0 0.0 -0.0 -7.730876445770264 5.474894046783447 -0.41732466220855713 -0.0 0.0 -0.0 -2.9054994583129883 0.9650753736495972 -0.10300876200199127 -0.0 0.0 -0.0 -10.278595924377441 0.7317469120025635 -0.026285571977496147 -0.0 0.0 -0.0 -2.221662998199463 -0.7335850596427917 0.20831838250160217 -0.0 0.0 -0.0 -21.858295440673828 -36.29419708251953 -28.478496551513672 -4.918381690979004 82.08110046386719 7.515369415283203 -11.743289947509766 -21.479698181152344 -27.490997314453125 -0.0 0.0 -0.0 62.06950378417969 -38.037696838378906 58.76200485229492 1.681167721748352 66.54940795898438 -1.8414312601089478 0.30900225043296814 2.5795769691467285 8.564178466796875
0.006699999721604399 56.50240182876587 0.07700000132899731 -10.401618957519531 -56.73889923095703 5.7169976234436035 -0.7434640526771545 16.241588592529297 14.60731029510498 -3.355384588241577 -13.32749080657959 3.6300621032714844 -1.6657168865203857 14.285500526428223 8.7457857131958 10.288288116455078 -23.106992721557617 19.409900665283203 -0.0 0.0 -0.0 -0.0 0.0 -0.0 -0.0 0.0 -0.0 11.619799613952637 81.69552612304688 54.05852127075195 -26.532997131347656 -45.161399841308594 93.79269409179688 -30.93609619140625 -77.20561981201172 -38.23379898071289 -0.0 0.0 -0.0 -0.0 0.0 -0.0 -0.0 0.0 -0.0 7.730876445770264 5.474894046783447 0.41732466220855713 -0.0 0.0 -0.0 2.9054994583129883 0.9650753736495972 0.10300876200199127 -0.0 0.0 -0.0 10.278595924377441 0.7317469120025635 0.026285571977496147 -0.0 0.0 -0.0 2.221662998199463 -0.7335850596427917 -0.20831838250160217 -0.0 0.0 -0.0 -62.7443962097168 4.591581344604492 -34.62739562988281 28.178300857543945 -31.808195114135742 -70.1438980102539 0.7881245017051697 24.579254150390625 -3.68235445022583 -0.0 0.0 -0.0 -0.0 0.0 -0.0 -0.0 0.0 -0.0 -7.730876445770264 5.474894046783447 -0.41732466220855713 -0.0 0.0 -0.0 -2.9054994583129883 0.9650753736495972 -0.10300876200199127 -0.0 0.0 -0.0 -10.278595924377441 0.7317469120025635 -0.026285571977496147 -0.0 0.0 -0.0 -2.221662998199463 -0.7335850596427917 0.20831838250160217 -0.0 0.0 -0.0 -21.817798614501953 -36.25020217895508 -28.492801666259766 -4.661349773406982 81.69371032714844 7.232016563415527 -11.670988082885742 -21.362096786499023 -27.446300506591797 -0.0 0.0 -0.0 61.904991149902344 -38.06439971923828 58.925193786621094 1.6537325382232666 66.26110076904297 -1.80105721950531 0.2771904468536377 2.830158233642578 8.537741661071777
-0.019999999858555384 56.657397747039795 0.11999999987892807 -10.364997863769531 -56.6807975769043 5.873501300811768 -0.8385187387466431 16.159284591674805 14.473301887512207 -3.2760086059570312 -13.329995155334473 3.598717212677002 -1.6644721031188965 14.344108581542969 8.762701034545898 10.266178131103516 -23.356998443603516 19.467199325561523 -0.0 0.0 -0.0 -0.0 0.0 -0.0 -0.0 0.0 -0.0 10.718697547912598 81.73474884033203 54.982234954833984 -26.540502548217773 -45.144493103027344 93.7577896118164 -30.815401077270508 -77.1628646850586 -38.104530334472656 -0.0 0.0 -0.0 -0.0 0.0 -0.0 -0.0 0.0 -0.0 7.730876445770264 5.474894046783447 0.41732466220855713 -0.0 0.0 -0.0 2.9054994583129883 0.9650753736495972 0.10300876200199127 -0.0 0.0 -0.0 10.278595924377441 0.7317469120025635 0.026285571977496147 -0.0 0.0 -0.0 2.221662998199463 -0.7335850596427917 -0.20831838250160217 -0.0 0.0 -0.0 -62.85739517211914 4.539506435394287 -34.59050369262695 28.181699752807617 -31.832590103149414 -70.1824951171875 0.7997984886169434 24.531503677368164 -3.6775670051574707 -0.0 0.0 -0.0 -0.0 0.0 -0.0 -0.0 0.0 -0.0 -7.730876445770264 5.474894046783447 -0.41732466220855713 -0.0 0.0 -0.0 -2.9054994583129883 0.9650753736495972 -0.10300876200199127 -0.0 0.0 -0.0 -10.278595924377441 0.7317469120025635 -0.026285571977496147 -0.0 0.0 -0.0 -2.221662998199463 -0.7335850596427917 0.20831838250160217 -0.0 0.0 -0.0 -21.82008171081543 -36.17840576171875 -28.53179168701172 -4.440764904022217 81.32451629638672 6.982876777648926 -11.568597793579102 -21.25939178466797 -27.328407287597656 -0.0 0.0 -0.0 61.70109176635742 -38.06040573120117 58.979896545410156 1.6265255212783813 65.98410034179688 -1.764496088027954 0.2350703626871109 3.0788609981536865 8.37962818145752
-0.0679000007949071 56.79219961166382 0.1660000008996576 -10.385884284973145 -56.675498962402344 6.057098388671875 -0.8912111520767212 16.04778480529785 14.376212120056152 -3.1850244998931885 -13.317092895507812 3.581467866897583 -1.6615749597549438 14.39812183380127 8.78164291381836 10.255488395690918 -23.469987869262695 19.512893676757812 -0.0 0.0 -0.0 -0.0 0.0 -0.0 -0.0 0.0 -0.0 9.634732246398926 81.80180358886719 56.06941604614258 -26.546998977661133 -45.13039779663086 93.7266845703125 -30.725065231323242 -77.14591979980469 -38.01737976074219 -0.0 0.0 -0.0 -0.0 0.0 -0.0 -0.0 0.0 -0.0 7.730876445770264 5.474894046783447 0.41732466220855713 -0.0 0.0 -0.0 2.9054994583129883 0.9650753736495972 0.10300876200199127 -0.0 0.0 -0.0 10.278595924377441 0.7317469120025635 0.026285571977496147 -0.0 0.0 -0.0 2.221662998199463 -0.7335850596427917 -0.20831838250160217 -0.0 0.0 -0.0 -62.985595703125 4.4803266525268555 -34.602195739746094 28.175395965576172 -31.78549575805664 -70.10749053955078 0.7894290089607239 24.59766387939453 -3.6854934692382812 -0.0 0.0 -0.0 -0.0 0.0 -0.0 -0.0 0.0 -0.0 -7.730876445770264 5.474894046783447 -0.41732466220855713 -0.0 0.0 -0.0 -2.9054994583129883 0.9650753736495972 -0.10300876200199127 -0.0 0.0 -0.0 -10.278595924377441 0.7317469120025635 -0.026285571977496147 -0.0 0.0 -0.0 -2.221662998199463 -0.7335850596427917 0.20831838250160217 -0.0 0.0 -0.0 -21.831497192382812 -36.06410217285156 -28.621599197387695 -4.249788761138916 80.97347259521484 6.762651443481445 -11.42799186706543 -21.168601989746094 -27.128299713134766 -0.0 0.0 -0.0 61.55509567260742 -38.06129455566406 58.93809509277344 1.6052155494689941 65.76748657226562 -1.7397750616073608 0.1971062868833542 3.2595694065093994 8.22464656829834
-0.13489999873854686 56.905001401901245 0.21600000327453017 -10.481013298034668 -56.72169494628906 6.284692287445068 -0.9291311502456665 15.920602798461914 14.316206932067871 -3.0953993797302246 -13.297611236572266 3.5751636028289795 -1.6604241132736206 14.451068878173828 8.803081512451172 10.264714241027832 -23.503995895385742 19.557098388671875 -0.0 0.0 -0.0 -0.0 0.0 -0.0 -0.0 0.0 -0.0 8.739195823669434 81.88428497314453 56.96488952636719 -26.552297592163086 -45.11860275268555 93.70149993896484 -30.706453323364258 -77.14064025878906 -37.998291015625 -0.0 0.0 -0.0 -0.0 0.0 -0.0 -0.0 0.0 -0.0 7.730876445770264 5.474894046783447 0.41732466220855713 -0.0 0.0 -0.0 2.9054994583129883 0.9650753736495972 0.10300876200199127 -0.0 0.0 -0.0 10.278595924377441 0.7317469120025635 0.026285571977496147 -0.0 0.0 -0.0 2.221662998199463 -0.7335850596427917 -0.20831838250160217 -0.0 0.0 -0.0 -63.08570098876953 4.424192905426025 -34.632301330566406 28.164392471313477 -31.703697204589844 -69.9767074584961 0.823784589767456 24.65734100341797 -3.702382802963257 -0.0 0.0 -0.0 -0.0 0.0 -0.0 -0.0 0.0 -0.0 -7.730876445770264 5.474894046783447 -0.41732466220855713 -0.0 0.0 -0.0 -2.9054994583129883 0.9650753736495972 -0.10300876200199127 -0.0 0.0 -0.0 -10.278595924377441 0.7317469120025635 -0.026285571977496147 -0.0 0.0 -0.0 -2.221662998199463 -0.7335850596427917 0.20831838250160217 -0.0 0.0 -0.0 -21.85650062561035 -35.93009948730469 -28.742897033691406 -4.0893378257751465 80.65228271484375 6.573284149169922 -11.269072532653809 -21.10120391845703 -26.87070083618164 -0.0 0.0 -0.0 61.44029235839844 -38.0469970703125 58.821502685546875 1.5870368480682373 65.60699462890625 -1.7234463691711426 0.16325423121452332 3.3963541984558105 8.0882568359375
-0.2157999977498548 56.999099254608154 0.2720000047702342 -10.625295639038086 -56.832794189453125 6.532015323638916 -0.9438565373420715 15.778698921203613 14.289512634277344 -3.021242141723633 -13.286395072937012 3.5765769481658936 -1.6650551557540894 14.513091087341309 8.825566291809082 10.31387710571289 -23.48760414123535 19.60499382019043 -0.0 0.0 -0.0 -0.0 0.0 -0.0 -0.0 0.0 -0.0 8.395977020263672 81.9859390258789 57.30946350097656 -26.553688049316406 -45.11459732055664 93.69580078125 -30.845565795898438 -77.15882110595703 -38.12752151489258 -0.0 0.0 -0.0 -0.0 0.0 -0.0 -0.0 0.0 -0.0 7.730876445770264 5.474894046783447 0.41732466220855713 -0.0 0.0 -0.0 2.9054994583129883 0.9650753736495972 0.10300876200199127 -0.0 0.0 -0.0 10.278595924377441 0.7317469120025635 0.026285571977496147 -0.0 0.0 -0.0 2.221662998199463 -0.7335850596427917 -0.20831838250160217 -0.0 0.0 -0.0 -63.11909103393555 4.383429050445557 -34.65659713745117 28.15110206604004 -31.604694366455078 -69.81729888916016 0.8041874170303345 24.59349250793457 -3.688129425048828 -0.0 0.0 -0.0 -0.0 0.0 -0.0 -0.0 0.0 -0.0 -7.730876445770264 5.474894046783447 -0.41732466220855713 -0.0 0.0 -0.0 -2.9054994583129883 0.9650753736495972 -0.10300876200199127 -0.0 0.0 -0.0 -10.278595924377441 0.7317469120025635 -0.026285571977496147 -0.0 0.0 -0.0 -2.221662998199463 -0.7335850596427917 0.20831838250160217 -0.0 0.0 -0.0 -21.877586364746094 -35.79339599609375 -28.88349151611328 -3.9579532146453857 80.37103271484375 6.41510534286499 -11.10878849029541 -21.067096710205078 -26.578096389770508 -0.0 0.0 -0.0 61.370304107666016 -38.00950622558594 58.64860534667969 1.5756568908691406 65.51799774169922 -1.7188535928726196 0.1365545094013214 3.4925549030303955 8.033944129943848
